<mxfile host="app.diagrams.net" modified="2022-03-18T17:32:58.635Z" agent="5.0 (Macintosh; Intel Mac OS X 10_15_7) AppleWebKit/605.1.15 (KHTML, like Gecko) Version/15.4 Safari/605.1.15" etag="C1HWgX8kxSM-ycP2ktEN" version="17.1.3" type="github">
  <diagram id="9pFdRmnQBV4P3BUQiRhb" name="Page-1">
    <mxGraphModel dx="2057" dy="1052" grid="1" gridSize="10" guides="1" tooltips="1" connect="1" arrows="1" fold="1" page="1" pageScale="1" pageWidth="1100" pageHeight="850" math="0" shadow="0">
      <root>
        <mxCell id="0" />
        <mxCell id="1" parent="0" />
        <mxCell id="2Cg7c1O2eNHoICknstYF-7" style="edgeStyle=orthogonalEdgeStyle;rounded=0;orthogonalLoop=1;jettySize=auto;html=1;entryX=0;entryY=0.5;entryDx=0;entryDy=0;" edge="1" parent="1" source="2Cg7c1O2eNHoICknstYF-1" target="2Cg7c1O2eNHoICknstYF-4">
          <mxGeometry relative="1" as="geometry" />
        </mxCell>
        <mxCell id="2Cg7c1O2eNHoICknstYF-1" value="Campaign 1" style="rounded=0;whiteSpace=wrap;html=1;fillColor=#dae8fc;strokeColor=#6c8ebf;" vertex="1" parent="1">
          <mxGeometry x="60" y="140" width="120" height="60" as="geometry" />
        </mxCell>
        <mxCell id="2Cg7c1O2eNHoICknstYF-8" style="rounded=0;orthogonalLoop=1;jettySize=auto;html=1;entryX=0;entryY=0.5;entryDx=0;entryDy=0;" edge="1" parent="1" source="2Cg7c1O2eNHoICknstYF-2" target="2Cg7c1O2eNHoICknstYF-5">
          <mxGeometry relative="1" as="geometry" />
        </mxCell>
        <mxCell id="2Cg7c1O2eNHoICknstYF-2" value="Campaign #2" style="rounded=0;whiteSpace=wrap;html=1;fillColor=#dae8fc;strokeColor=#6c8ebf;" vertex="1" parent="1">
          <mxGeometry x="60" y="270" width="120" height="60" as="geometry" />
        </mxCell>
        <mxCell id="2Cg7c1O2eNHoICknstYF-9" style="rounded=0;orthogonalLoop=1;jettySize=auto;html=1;" edge="1" parent="1" source="2Cg7c1O2eNHoICknstYF-3">
          <mxGeometry relative="1" as="geometry">
            <mxPoint x="320" y="370" as="targetPoint" />
          </mxGeometry>
        </mxCell>
        <mxCell id="2Cg7c1O2eNHoICknstYF-3" value="Campaign #3" style="rounded=0;whiteSpace=wrap;html=1;fillColor=#dae8fc;strokeColor=#6c8ebf;" vertex="1" parent="1">
          <mxGeometry x="60" y="400" width="120" height="60" as="geometry" />
        </mxCell>
        <mxCell id="2Cg7c1O2eNHoICknstYF-4" value="Initiative #1" style="rounded=0;whiteSpace=wrap;html=1;fillColor=#d5e8d4;strokeColor=#82b366;" vertex="1" parent="1">
          <mxGeometry x="320" y="140" width="120" height="60" as="geometry" />
        </mxCell>
        <mxCell id="2Cg7c1O2eNHoICknstYF-5" value="Initiative #1" style="rounded=0;whiteSpace=wrap;html=1;fillColor=#d5e8d4;strokeColor=#82b366;" vertex="1" parent="1">
          <mxGeometry x="320" y="340" width="120" height="60" as="geometry" />
        </mxCell>
        <mxCell id="2Cg7c1O2eNHoICknstYF-18" style="edgeStyle=none;rounded=0;orthogonalLoop=1;jettySize=auto;html=1;" edge="1" parent="1" source="2Cg7c1O2eNHoICknstYF-10" target="2Cg7c1O2eNHoICknstYF-4">
          <mxGeometry relative="1" as="geometry" />
        </mxCell>
        <mxCell id="2Cg7c1O2eNHoICknstYF-19" style="edgeStyle=none;rounded=0;orthogonalLoop=1;jettySize=auto;html=1;entryX=1;entryY=0.5;entryDx=0;entryDy=0;" edge="1" parent="1" source="2Cg7c1O2eNHoICknstYF-10" target="2Cg7c1O2eNHoICknstYF-5">
          <mxGeometry relative="1" as="geometry" />
        </mxCell>
        <mxCell id="2Cg7c1O2eNHoICknstYF-10" value="Skill #1" style="rounded=0;whiteSpace=wrap;html=1;fillColor=#e1d5e7;strokeColor=#9673a6;" vertex="1" parent="1">
          <mxGeometry x="560" y="160" width="120" height="60" as="geometry" />
        </mxCell>
        <mxCell id="2Cg7c1O2eNHoICknstYF-20" style="edgeStyle=none;rounded=0;orthogonalLoop=1;jettySize=auto;html=1;entryX=1;entryY=0.5;entryDx=0;entryDy=0;" edge="1" parent="1" source="2Cg7c1O2eNHoICknstYF-11" target="2Cg7c1O2eNHoICknstYF-4">
          <mxGeometry relative="1" as="geometry" />
        </mxCell>
        <mxCell id="2Cg7c1O2eNHoICknstYF-41" value="40%" style="edgeLabel;html=1;align=center;verticalAlign=middle;resizable=0;points=[];" vertex="1" connectable="0" parent="2Cg7c1O2eNHoICknstYF-20">
          <mxGeometry x="-0.1161" y="-2" relative="1" as="geometry">
            <mxPoint as="offset" />
          </mxGeometry>
        </mxCell>
        <mxCell id="2Cg7c1O2eNHoICknstYF-21" value="60%" style="edgeStyle=none;rounded=0;orthogonalLoop=1;jettySize=auto;html=1;entryX=1;entryY=0.75;entryDx=0;entryDy=0;" edge="1" parent="1" source="2Cg7c1O2eNHoICknstYF-11" target="2Cg7c1O2eNHoICknstYF-5">
          <mxGeometry relative="1" as="geometry" />
        </mxCell>
        <mxCell id="2Cg7c1O2eNHoICknstYF-11" value="Skill #2" style="rounded=0;whiteSpace=wrap;html=1;fillColor=#e1d5e7;strokeColor=#9673a6;" vertex="1" parent="1">
          <mxGeometry x="560" y="280" width="120" height="60" as="geometry" />
        </mxCell>
        <mxCell id="2Cg7c1O2eNHoICknstYF-22" style="edgeStyle=none;rounded=0;orthogonalLoop=1;jettySize=auto;html=1;" edge="1" parent="1" source="2Cg7c1O2eNHoICknstYF-12" target="2Cg7c1O2eNHoICknstYF-5">
          <mxGeometry relative="1" as="geometry" />
        </mxCell>
        <mxCell id="2Cg7c1O2eNHoICknstYF-12" value="Skill #3" style="rounded=0;whiteSpace=wrap;html=1;fillColor=#e1d5e7;strokeColor=#9673a6;" vertex="1" parent="1">
          <mxGeometry x="560" y="400" width="120" height="60" as="geometry" />
        </mxCell>
        <mxCell id="2Cg7c1O2eNHoICknstYF-23" style="edgeStyle=none;rounded=0;orthogonalLoop=1;jettySize=auto;html=1;entryX=1;entryY=0.25;entryDx=0;entryDy=0;" edge="1" parent="1" source="2Cg7c1O2eNHoICknstYF-13" target="2Cg7c1O2eNHoICknstYF-10">
          <mxGeometry relative="1" as="geometry" />
        </mxCell>
        <mxCell id="2Cg7c1O2eNHoICknstYF-13" value="Group #1" style="rounded=0;whiteSpace=wrap;html=1;fillColor=#fff2cc;strokeColor=#d6b656;" vertex="1" parent="1">
          <mxGeometry x="760" y="40" width="120" height="60" as="geometry" />
        </mxCell>
        <mxCell id="2Cg7c1O2eNHoICknstYF-24" style="edgeStyle=none;rounded=0;orthogonalLoop=1;jettySize=auto;html=1;" edge="1" parent="1" source="2Cg7c1O2eNHoICknstYF-14" target="2Cg7c1O2eNHoICknstYF-10">
          <mxGeometry relative="1" as="geometry" />
        </mxCell>
        <mxCell id="2Cg7c1O2eNHoICknstYF-25" style="edgeStyle=none;rounded=0;orthogonalLoop=1;jettySize=auto;html=1;entryX=1;entryY=0.5;entryDx=0;entryDy=0;" edge="1" parent="1" source="2Cg7c1O2eNHoICknstYF-14" target="2Cg7c1O2eNHoICknstYF-11">
          <mxGeometry relative="1" as="geometry" />
        </mxCell>
        <mxCell id="2Cg7c1O2eNHoICknstYF-14" value="Group #2" style="rounded=0;whiteSpace=wrap;html=1;fillColor=#fff2cc;strokeColor=#d6b656;" vertex="1" parent="1">
          <mxGeometry x="760" y="160" width="120" height="60" as="geometry" />
        </mxCell>
        <mxCell id="2Cg7c1O2eNHoICknstYF-26" style="edgeStyle=none;rounded=0;orthogonalLoop=1;jettySize=auto;html=1;" edge="1" parent="1" source="2Cg7c1O2eNHoICknstYF-15" target="2Cg7c1O2eNHoICknstYF-11">
          <mxGeometry relative="1" as="geometry" />
        </mxCell>
        <mxCell id="2Cg7c1O2eNHoICknstYF-27" style="edgeStyle=none;rounded=0;orthogonalLoop=1;jettySize=auto;html=1;entryX=1;entryY=0.5;entryDx=0;entryDy=0;" edge="1" parent="1" source="2Cg7c1O2eNHoICknstYF-15" target="2Cg7c1O2eNHoICknstYF-12">
          <mxGeometry relative="1" as="geometry" />
        </mxCell>
        <mxCell id="2Cg7c1O2eNHoICknstYF-15" value="Group #3" style="rounded=0;whiteSpace=wrap;html=1;fillColor=#fff2cc;strokeColor=#d6b656;" vertex="1" parent="1">
          <mxGeometry x="760" y="280" width="120" height="60" as="geometry" />
        </mxCell>
        <mxCell id="2Cg7c1O2eNHoICknstYF-17" style="edgeStyle=none;rounded=0;orthogonalLoop=1;jettySize=auto;html=1;entryX=1;entryY=0.5;entryDx=0;entryDy=0;" edge="1" parent="1" source="2Cg7c1O2eNHoICknstYF-16" target="2Cg7c1O2eNHoICknstYF-13">
          <mxGeometry relative="1" as="geometry" />
        </mxCell>
        <mxCell id="2Cg7c1O2eNHoICknstYF-16" value="User" style="sketch=0;outlineConnect=0;fontColor=#232F3E;gradientColor=none;strokeColor=#232F3E;fillColor=#ffffff;dashed=0;verticalLabelPosition=bottom;verticalAlign=top;align=center;html=1;fontSize=12;fontStyle=0;aspect=fixed;shape=mxgraph.aws4.resourceIcon;resIcon=mxgraph.aws4.user;" vertex="1" parent="1">
          <mxGeometry x="1010" y="40" width="60" height="60" as="geometry" />
        </mxCell>
        <mxCell id="2Cg7c1O2eNHoICknstYF-29" style="edgeStyle=none;rounded=0;orthogonalLoop=1;jettySize=auto;html=1;entryX=1;entryY=0.75;entryDx=0;entryDy=0;" edge="1" parent="1" source="2Cg7c1O2eNHoICknstYF-28" target="2Cg7c1O2eNHoICknstYF-13">
          <mxGeometry relative="1" as="geometry" />
        </mxCell>
        <mxCell id="2Cg7c1O2eNHoICknstYF-30" style="edgeStyle=none;rounded=0;orthogonalLoop=1;jettySize=auto;html=1;" edge="1" parent="1" source="2Cg7c1O2eNHoICknstYF-28" target="2Cg7c1O2eNHoICknstYF-14">
          <mxGeometry relative="1" as="geometry" />
        </mxCell>
        <mxCell id="2Cg7c1O2eNHoICknstYF-28" value="User" style="sketch=0;outlineConnect=0;fontColor=#232F3E;gradientColor=none;strokeColor=#232F3E;fillColor=#ffffff;dashed=0;verticalLabelPosition=bottom;verticalAlign=top;align=center;html=1;fontSize=12;fontStyle=0;aspect=fixed;shape=mxgraph.aws4.resourceIcon;resIcon=mxgraph.aws4.user;" vertex="1" parent="1">
          <mxGeometry x="1010" y="160" width="60" height="60" as="geometry" />
        </mxCell>
        <mxCell id="2Cg7c1O2eNHoICknstYF-32" style="edgeStyle=none;rounded=0;orthogonalLoop=1;jettySize=auto;html=1;entryX=1;entryY=0.75;entryDx=0;entryDy=0;" edge="1" parent="1" source="2Cg7c1O2eNHoICknstYF-31" target="2Cg7c1O2eNHoICknstYF-14">
          <mxGeometry relative="1" as="geometry" />
        </mxCell>
        <mxCell id="2Cg7c1O2eNHoICknstYF-34" value="100%" style="edgeLabel;html=1;align=center;verticalAlign=middle;resizable=0;points=[];" vertex="1" connectable="0" parent="2Cg7c1O2eNHoICknstYF-32">
          <mxGeometry x="0.1409" y="-3" relative="1" as="geometry">
            <mxPoint y="1" as="offset" />
          </mxGeometry>
        </mxCell>
        <mxCell id="2Cg7c1O2eNHoICknstYF-33" value="50%" style="edgeStyle=none;rounded=0;orthogonalLoop=1;jettySize=auto;html=1;" edge="1" parent="1" source="2Cg7c1O2eNHoICknstYF-31" target="2Cg7c1O2eNHoICknstYF-15">
          <mxGeometry relative="1" as="geometry" />
        </mxCell>
        <mxCell id="2Cg7c1O2eNHoICknstYF-35" style="edgeStyle=none;rounded=0;orthogonalLoop=1;jettySize=auto;html=1;entryX=1;entryY=0.75;entryDx=0;entryDy=0;" edge="1" parent="1" source="2Cg7c1O2eNHoICknstYF-31" target="2Cg7c1O2eNHoICknstYF-12">
          <mxGeometry relative="1" as="geometry" />
        </mxCell>
        <mxCell id="2Cg7c1O2eNHoICknstYF-31" value="User" style="sketch=0;outlineConnect=0;fontColor=#232F3E;gradientColor=none;strokeColor=#232F3E;fillColor=#ffffff;dashed=0;verticalLabelPosition=bottom;verticalAlign=top;align=center;html=1;fontSize=12;fontStyle=0;aspect=fixed;shape=mxgraph.aws4.resourceIcon;resIcon=mxgraph.aws4.user;" vertex="1" parent="1">
          <mxGeometry x="1000" y="280" width="60" height="60" as="geometry" />
        </mxCell>
        <mxCell id="2Cg7c1O2eNHoICknstYF-37" style="edgeStyle=none;rounded=0;orthogonalLoop=1;jettySize=auto;html=1;entryX=1;entryY=0.75;entryDx=0;entryDy=0;" edge="1" parent="1" source="2Cg7c1O2eNHoICknstYF-36" target="2Cg7c1O2eNHoICknstYF-15">
          <mxGeometry relative="1" as="geometry" />
        </mxCell>
        <mxCell id="2Cg7c1O2eNHoICknstYF-38" style="edgeStyle=none;rounded=0;orthogonalLoop=1;jettySize=auto;html=1;entryX=1;entryY=1;entryDx=0;entryDy=0;" edge="1" parent="1" source="2Cg7c1O2eNHoICknstYF-36" target="2Cg7c1O2eNHoICknstYF-12">
          <mxGeometry relative="1" as="geometry" />
        </mxCell>
        <mxCell id="2Cg7c1O2eNHoICknstYF-36" value="User" style="sketch=0;outlineConnect=0;fontColor=#232F3E;gradientColor=none;strokeColor=#232F3E;fillColor=#ffffff;dashed=0;verticalLabelPosition=bottom;verticalAlign=top;align=center;html=1;fontSize=12;fontStyle=0;aspect=fixed;shape=mxgraph.aws4.resourceIcon;resIcon=mxgraph.aws4.user;" vertex="1" parent="1">
          <mxGeometry x="1010" y="400" width="60" height="60" as="geometry" />
        </mxCell>
        <mxCell id="2Cg7c1O2eNHoICknstYF-40" style="edgeStyle=none;rounded=0;orthogonalLoop=1;jettySize=auto;html=1;entryX=0.75;entryY=1;entryDx=0;entryDy=0;" edge="1" parent="1" source="2Cg7c1O2eNHoICknstYF-39" target="2Cg7c1O2eNHoICknstYF-12">
          <mxGeometry relative="1" as="geometry" />
        </mxCell>
        <mxCell id="2Cg7c1O2eNHoICknstYF-39" value="User" style="sketch=0;outlineConnect=0;fontColor=#232F3E;gradientColor=none;strokeColor=#232F3E;fillColor=#ffffff;dashed=0;verticalLabelPosition=bottom;verticalAlign=top;align=center;html=1;fontSize=12;fontStyle=0;aspect=fixed;shape=mxgraph.aws4.resourceIcon;resIcon=mxgraph.aws4.user;" vertex="1" parent="1">
          <mxGeometry x="1010" y="520" width="60" height="60" as="geometry" />
        </mxCell>
      </root>
    </mxGraphModel>
  </diagram>
</mxfile>
